<?xml version="1.0" encoding="utf-8"?>
<!-- Generator: Adobe Illustrator 21.1.0, SVG Export Plug-In . SVG Version: 6.00 Build 0)  -->
<svg version="1.1" id="Layer_1" xmlns="http://www.w3.org/2000/svg" xmlns:xlink="http://www.w3.org/1999/xlink" x="0px" y="0px"
	 viewBox="0 0 343.8 100" style="enable-background:new 0 0 343.8 100;" xml:space="preserve">
<style type="text/css">
	.st0{fill:#9C0045;}
	.st1{fill:#474747;}
</style>
<g>
	<path class="st0" d="M11.7,80.1C3.7,80.1,0.8,75,0.8,68.7c0-7.4,3.7-12.7,11.7-12.7c1.8,0,3.6,0.3,5.2,0.7l-0.4,3.5
		c-1.7-0.5-3.4-0.8-5.1-0.8C7.3,59.3,5,63.1,5,68c0,5.5,2.3,8.6,7.5,8.6c1.6,0,3.7-0.5,5-1.1l0.5,3.4C16.2,79.7,13.9,80.1,11.7,80.1
		"/>
	<path class="st0" d="M31.8,79.9c-1.4,0-3.8-0.1-6.4-0.1V56.1c1.9,0,4.6-0.1,7.4-0.1c5.2,0,7.8,2.1,7.8,5.7c0,2.4-1.6,4.6-4,5.4v0.1
		c3.1,0.6,4.5,2.9,4.5,5.4C41.1,75.7,39.1,79.9,31.8,79.9 M32.2,59.1c-1.1,0-2.1,0-3,0.1v7c0.6,0,1.2,0,2,0c3.5,0,5.4-1.4,5.4-3.8
		C36.6,60.5,35.5,59.1,32.2,59.1 M31.3,69c-0.4,0-1.6,0-2.1,0v7.5c0.6,0.1,1.5,0.2,2.8,0.2c3.5,0,5.1-1.7,5.1-4.1
		C37.1,70,34.7,69,31.3,69"/>
	<polygon class="st0" points="66.8,59.4 66.8,79.8 63,79.8 63,59.4 56.5,59.4 56.5,56.1 73.3,56.1 73.3,59.4 	"/>
	<path class="st0" d="M87.7,79.8l-6-8.4h-0.1v8.4h-3.1V60.4c1.4-0.1,3-0.1,5.2-0.1c4,0,6.8,1.4,6.8,5.3c0,3.1-2.3,5.1-5.5,5.4
		c0.5,0.7,1.2,1.4,1.6,2.1l5.1,6.8H87.7z M83.2,62.8c-0.6,0-1.2,0-1.6,0.1V69c0.3,0,0.8,0.1,1.5,0.1c2.5,0,4.1-1.3,4.1-3.2
		C87.1,63.8,85.8,62.8,83.2,62.8"/>
	<polygon class="st0" points="98.8,79.8 98.8,60.4 109,60.4 109,63 101.9,63 101.9,68.5 108.7,68.5 108.7,71.1 101.9,71.1 
		101.9,77.1 109,77.1 109,79.8 	"/>
	<path class="st0" d="M124.5,80.1c-6.1,0-7.4-3.3-7.4-6.9V60.4h3.1V73c0,2.6,0.9,4.5,4.5,4.5c3.2,0,4.6-1.3,4.6-4.9V60.4h3.1v11.9
		C132.4,77.5,129.6,80.1,124.5,80.1"/>
	<polygon class="st0" points="153.6,79.8 153.6,71.1 144.5,71.1 144.5,79.8 141.3,79.8 141.3,60.4 144.5,60.4 144.5,68.4 
		153.6,68.4 153.6,60.4 156.7,60.4 156.7,79.8 	"/>
	<path class="st0" d="M177.2,79.8l-1.5-4.3h-7.9l-1.5,4.3h-3.2l7-19.4h3.5l7,19.4H177.2z M172.7,66.9c-0.4-1-0.6-1.9-0.9-3h-0.1
		c-0.2,1-0.5,2-0.9,3.1l-2.2,6h6.2L172.7,66.9z"/>
	<path class="st0" d="M198.8,79.8l-6.6-11c-0.9-1.4-1.6-2.8-2.2-4.1c0.1,1.9,0.2,5.8,0.2,8.6v6.5h-3V60.4h4.1l6.4,10.6
		c0.9,1.4,1.6,3,2.4,4.4c-0.1-2.2-0.2-6.4-0.2-9.2v-5.8h3v19.4H198.8z"/>
	<path class="st0" d="M217.1,79.9c-2,0-3.6-0.1-5.1-0.1V60.4c1.5,0,3.8-0.1,6-0.1c6.1,0,9.9,2.8,9.9,9.5
		C227.8,76.5,223.4,79.9,217.1,79.9 M217.7,62.9c-0.9,0-2,0-2.6,0.1v14.1c0.6,0.1,1.6,0.1,2.3,0.1c4.2,0,7.1-2.2,7.1-7.2
		C224.5,65.4,222.5,62.9,217.7,62.9"/>
	<path class="st0" d="M263.1,60.4c-2-0.8-4.1-1.2-6.3-1.2c-4.8,0-8.6,3.1-8.6,8.9c0,5.5,3.1,8.7,8.2,8.7c1.4,0,2.6-0.2,3.6-0.6v-8.6
		h3.8v11.1c-2.3,0.9-5.2,1.4-7.9,1.4c-7.3,0-11.8-4.4-11.8-11.7c0-7.3,4.9-12.7,13-12.7c2.3,0,4.5,0.4,6.6,1L263.1,60.4z"/>
	<path class="st0" d="M292.4,79.8l-1.5-10.3c-0.3-2.1-0.5-3.5-0.6-4.7h-0.1c-0.2,1.1-0.5,2.4-1,3.8l-3.7,11.3h-3.2l-3.5-10.5
		c-0.5-1.5-1-3.2-1.2-4.6h-0.1c-0.1,1.7-0.3,3.2-0.5,5l-1.2,10h-3.2l2.9-19.4h3.7l3.7,11.2c0.5,1.4,0.8,2.7,1.1,4h0.1
		c0.3-1.4,0.6-2.4,1.1-3.9l3.8-11.3h3.8l3,19.4H292.4z"/>
	<path class="st0" d="M308.4,79.9c-1.2,0-3.1-0.1-5.3-0.1V60.4c1.5,0,3.7-0.1,6.1-0.1c4.2,0,6.4,1.7,6.4,4.7c0,2-1.3,3.7-3.3,4.4
		v0.1c2.5,0.5,3.7,2.4,3.7,4.4C316.1,76.5,314.4,79.9,308.4,79.9 M308.7,62.8c-0.9,0-1.7,0-2.4,0.1v5.8c0.5,0,1,0,1.7,0
		c2.9,0,4.4-1.2,4.4-3.1C312.4,63.9,311.5,62.8,308.7,62.8 M308,71c-0.3,0-1.3,0-1.8,0v6.2c0.5,0.1,1.3,0.1,2.3,0.1
		c2.8,0,4.2-1.4,4.2-3.3C312.8,71.8,310.8,71,308,71"/>
	<polygon class="st0" points="339.2,79.8 339.2,69.2 328,69.2 328,79.8 324.2,79.8 324.2,56.1 328,56.1 328,65.9 339.2,65.9 
		339.2,56.1 343,56.1 343,79.8 	"/>
	<path class="st1" d="M44.5,88.3c0.2,0,0.3,0,0.5,0c0.2,0,0.4,0,0.6,0c0.2,0,0.4,0,0.5,0.1c0.2,0,0.3,0.1,0.4,0.2
		c0.3,0.2,0.5,0.4,0.6,0.6c0.2,0.3,0.3,0.6,0.3,1c0,0.4-0.1,0.8-0.3,1.1c-0.2,0.3-0.5,0.5-0.9,0.7v0c0.5,0.1,0.8,0.3,1.1,0.6
		c0.3,0.3,0.4,0.7,0.4,1.2c0,0.3,0,0.6-0.2,0.8c-0.1,0.3-0.2,0.5-0.4,0.7c-0.2,0.2-0.4,0.4-0.7,0.5c-0.3,0.1-0.6,0.2-1,0.2h-3.7
		v-7.7H44.5z M44.7,91.6c0.6,0,1-0.1,1.3-0.3c0.3-0.2,0.4-0.5,0.4-0.9c0-0.3,0-0.5-0.1-0.7c-0.1-0.2-0.2-0.3-0.4-0.4
		c-0.2-0.1-0.3-0.1-0.5-0.2c-0.2,0-0.4,0-0.6,0h-2.1v2.5H44.7z M45.3,95.1c0.5,0,0.8-0.1,1.1-0.4c0.3-0.2,0.4-0.6,0.4-1
		c0-0.3,0-0.5-0.1-0.6c-0.1-0.2-0.2-0.3-0.4-0.4c-0.2-0.1-0.3-0.2-0.5-0.2c-0.2,0-0.4-0.1-0.6-0.1h-2.4v2.7H45.3z"/>
	<path class="st1" d="M56,95.4c-0.5,0.5-1.3,0.7-2.3,0.7c-1,0-1.8-0.2-2.3-0.7c-0.6-0.5-0.8-1.2-0.8-2.3v-4.9h1v4.9
		c0,0.7,0.2,1.2,0.6,1.6c0.4,0.4,0.9,0.5,1.6,0.5c0.7,0,1.2-0.2,1.5-0.5c0.3-0.4,0.5-0.9,0.5-1.6v-4.9h1v4.9
		C56.8,94.2,56.5,94.9,56,95.4"/>
	<path class="st1" d="M64.7,89.3c-0.4-0.3-0.9-0.4-1.4-0.4c-0.5,0-0.9,0.1-1.2,0.3c-0.3,0.2-0.6,0.4-0.8,0.7c-0.2,0.3-0.4,0.6-0.5,1
		c-0.1,0.4-0.2,0.8-0.2,1.2c0,0.4,0.1,0.9,0.2,1.2c0.1,0.4,0.3,0.7,0.5,1c0.2,0.3,0.5,0.5,0.8,0.7c0.3,0.2,0.7,0.3,1.2,0.3
		c0.3,0,0.6-0.1,0.9-0.2c0.3-0.1,0.5-0.3,0.7-0.5c0.2-0.2,0.3-0.4,0.4-0.7c0.1-0.3,0.2-0.6,0.2-0.9h1c-0.1,1-0.4,1.7-1,2.3
		c-0.6,0.5-1.3,0.8-2.3,0.8c-0.6,0-1.1-0.1-1.6-0.3c-0.4-0.2-0.8-0.5-1.1-0.8c-0.3-0.4-0.5-0.8-0.7-1.3c-0.1-0.5-0.2-1-0.2-1.6
		c0-0.6,0.1-1.1,0.2-1.6c0.2-0.5,0.4-0.9,0.7-1.3c0.3-0.4,0.7-0.7,1.1-0.9c0.5-0.2,1-0.3,1.6-0.3c0.4,0,0.8,0.1,1.1,0.2
		c0.4,0.1,0.7,0.3,1,0.5c0.3,0.2,0.5,0.5,0.7,0.8c0.2,0.3,0.3,0.7,0.4,1.1h-1C65.3,90,65.1,89.6,64.7,89.3"/>
	<polygon class="st1" points="70.4,88.3 70.4,91.6 74.5,91.6 74.5,88.3 75.5,88.3 75.5,96 74.5,96 74.5,92.4 70.4,92.4 70.4,96 
		69.4,96 69.4,88.3 	"/>
	<polygon class="st1" points="79.8,88.3 79.8,91.6 83.9,91.6 83.9,88.3 84.9,88.3 84.9,96 83.9,96 83.9,92.4 79.8,92.4 79.8,96 
		78.8,96 78.8,88.3 	"/>
	<path class="st1" d="M91.4,88.3l3,7.7h-1.1l-0.8-2.3h-3.3L88.3,96h-1l3-7.7H91.4z M92.1,92.8l-1.3-3.6h0l-1.3,3.6H92.1z"/>
	<polygon class="st1" points="97.7,88.3 97.7,95.1 101.8,95.1 101.8,96 96.7,96 96.7,88.3 	"/>
	<polygon class="st1" points="103.5,89.1 103.5,88.3 109.6,88.3 109.6,89.1 107.1,89.1 107.1,96 106,96 106,89.1 	"/>
	<path class="st1" d="M117.4,95.4c-0.5,0.5-1.3,0.7-2.3,0.7c-1,0-1.8-0.2-2.3-0.7c-0.6-0.5-0.8-1.2-0.8-2.3v-4.9h1v4.9
		c0,0.7,0.2,1.2,0.6,1.6c0.4,0.4,0.9,0.5,1.6,0.5c0.7,0,1.2-0.2,1.5-0.5c0.3-0.4,0.5-0.9,0.5-1.6v-4.9h1v4.9
		C118.2,94.2,118,94.9,117.4,95.4"/>
	<polygon class="st1" points="122.5,88.3 126.6,94.5 126.6,94.5 126.6,88.3 127.6,88.3 127.6,96 126.5,96 122.4,89.8 122.4,89.8 
		122.4,96 121.4,96 121.4,88.3 	"/>
	<path class="st1" d="M135.5,95.9c-0.4,0.2-0.9,0.3-1.4,0.3c-0.6,0-1.1-0.1-1.5-0.3s-0.8-0.5-1.2-0.9c-0.3-0.4-0.6-0.8-0.7-1.2
		c-0.2-0.5-0.2-1-0.2-1.5c0-0.6,0.1-1.1,0.2-1.6c0.2-0.5,0.4-1,0.7-1.3c0.3-0.4,0.7-0.7,1.1-0.9c0.5-0.2,1-0.3,1.6-0.3
		c0.4,0,0.8,0.1,1.2,0.1c0.4,0.1,0.7,0.3,1,0.5c0.3,0.2,0.5,0.5,0.7,0.8c0.2,0.3,0.3,0.7,0.4,1.2h-1c-0.1-0.3-0.1-0.5-0.3-0.8
		c-0.1-0.2-0.3-0.4-0.5-0.5c-0.2-0.1-0.4-0.2-0.7-0.3c-0.3-0.1-0.5-0.1-0.8-0.1c-0.5,0-0.9,0.1-1.2,0.3c-0.3,0.2-0.6,0.4-0.8,0.7
		c-0.2,0.3-0.4,0.7-0.5,1c-0.1,0.4-0.2,0.8-0.2,1.2c0,0.4,0.1,0.8,0.2,1.2c0.1,0.4,0.3,0.7,0.5,1c0.2,0.3,0.5,0.5,0.8,0.7
		c0.3,0.2,0.7,0.3,1.1,0.3c0.4,0,0.8-0.1,1.1-0.2c0.3-0.1,0.6-0.3,0.8-0.5c0.2-0.2,0.4-0.5,0.5-0.8c0.1-0.3,0.2-0.6,0.1-1h-2.5v-0.9
		h3.4V96h-0.7l-0.3-1C136.3,95.4,135.9,95.7,135.5,95.9"/>
	<polygon class="st1" points="145.9,88.3 145.9,89.1 141.6,89.1 141.6,91.6 145.6,91.6 145.6,92.4 141.6,92.4 141.6,95.1 146,95.1 
		146,96 140.6,96 140.6,88.3 	"/>
	<polygon class="st1" points="149.8,88.3 153.9,94.5 153.9,94.5 153.9,88.3 154.9,88.3 154.9,96 153.8,96 149.7,89.8 149.7,89.8 
		149.7,96 148.7,96 148.7,88.3 	"/>
	<path class="st1" d="M166.6,89.3c-0.3-0.2-0.8-0.4-1.3-0.4c-0.2,0-0.4,0-0.6,0.1c-0.2,0-0.4,0.1-0.6,0.2c-0.2,0.1-0.3,0.2-0.4,0.4
		c-0.1,0.2-0.1,0.4-0.1,0.6c0,0.2,0.1,0.4,0.2,0.6c0.1,0.1,0.3,0.3,0.6,0.4c0.2,0.1,0.5,0.2,0.8,0.2c0.3,0.1,0.6,0.1,0.9,0.2
		c0.3,0.1,0.6,0.2,0.9,0.3c0.3,0.1,0.6,0.2,0.8,0.4c0.2,0.2,0.4,0.4,0.6,0.6c0.1,0.3,0.2,0.6,0.2,1c0,0.4-0.1,0.8-0.3,1.1
		c-0.2,0.3-0.4,0.5-0.7,0.7c-0.3,0.2-0.6,0.3-1,0.4c-0.4,0.1-0.7,0.1-1.1,0.1c-0.4,0-0.8-0.1-1.2-0.2c-0.4-0.1-0.7-0.3-1-0.5
		c-0.3-0.2-0.5-0.5-0.7-0.8c-0.2-0.3-0.3-0.7-0.3-1.2h1c0,0.3,0.1,0.6,0.2,0.8c0.1,0.2,0.3,0.4,0.5,0.6c0.2,0.2,0.4,0.3,0.7,0.3
		c0.3,0.1,0.6,0.1,0.8,0.1c0.2,0,0.5,0,0.7-0.1c0.2,0,0.4-0.1,0.6-0.2c0.2-0.1,0.3-0.2,0.5-0.4c0.1-0.2,0.2-0.4,0.2-0.7
		c0-0.3-0.1-0.5-0.2-0.6c-0.1-0.2-0.3-0.3-0.6-0.4c-0.2-0.1-0.5-0.2-0.8-0.3c-0.3-0.1-0.6-0.1-0.9-0.2c-0.3-0.1-0.6-0.1-0.9-0.2
		c-0.3-0.1-0.6-0.2-0.8-0.4c-0.2-0.1-0.4-0.3-0.6-0.6c-0.1-0.2-0.2-0.5-0.2-0.9c0-0.4,0.1-0.7,0.2-1c0.2-0.3,0.4-0.5,0.6-0.7
		c0.3-0.2,0.6-0.3,0.9-0.4c0.3-0.1,0.7-0.1,1-0.1c0.4,0,0.8,0,1.1,0.1c0.3,0.1,0.6,0.2,0.9,0.4c0.3,0.2,0.5,0.5,0.6,0.8
		c0.1,0.3,0.2,0.7,0.2,1.1h-1C167.1,90,166.9,89.6,166.6,89.3"/>
	<polygon class="st1" points="170.5,89.1 170.5,88.3 176.6,88.3 176.6,89.1 174.1,89.1 174.1,96 173,96 173,89.1 	"/>
	<polygon class="st1" points="184.4,88.3 184.4,89.1 180.1,89.1 180.1,91.6 184.1,91.6 184.1,92.4 180.1,92.4 180.1,95.1 
		184.4,95.1 184.4,96 179.1,96 179.1,88.3 	"/>
	<path class="st1" d="M192.6,95.4c-0.5,0.5-1.3,0.7-2.3,0.7c-1,0-1.8-0.2-2.3-0.7c-0.6-0.5-0.8-1.2-0.8-2.3v-4.9h1v4.9
		c0,0.7,0.2,1.2,0.5,1.6c0.4,0.4,0.9,0.5,1.6,0.5c0.7,0,1.2-0.2,1.5-0.5c0.3-0.4,0.5-0.9,0.5-1.6v-4.9h1v4.9
		C193.4,94.2,193.1,94.9,192.6,95.4"/>
	<polygon class="st1" points="201.9,88.3 201.9,89.1 197.6,89.1 197.6,91.6 201.7,91.6 201.7,92.4 197.6,92.4 197.6,95.1 202,95.1 
		202,96 196.6,96 196.6,88.3 	"/>
	<path class="st1" d="M208.4,88.3c0.7,0,1.3,0.2,1.7,0.5c0.4,0.4,0.6,0.9,0.6,1.5c0,0.5-0.1,0.9-0.3,1.2c-0.2,0.4-0.6,0.6-1,0.7v0
		c0.2,0,0.4,0.1,0.5,0.2c0.1,0.1,0.3,0.2,0.3,0.4c0.1,0.1,0.1,0.3,0.2,0.5c0,0.2,0.1,0.4,0.1,0.5c0,0.2,0,0.4,0,0.6
		c0,0.2,0,0.4,0.1,0.6c0,0.2,0.1,0.4,0.1,0.5c0.1,0.2,0.1,0.3,0.2,0.4h-1.1c-0.1-0.1-0.1-0.2-0.1-0.3c0-0.1,0-0.3,0-0.5
		c0-0.2,0-0.4,0-0.5c0-0.2,0-0.4-0.1-0.6c0-0.2-0.1-0.4-0.1-0.5c0-0.2-0.1-0.3-0.2-0.4c-0.1-0.1-0.2-0.2-0.4-0.3
		c-0.2-0.1-0.4-0.1-0.6-0.1h-2.5V96h-1v-7.7H208.4z M208.6,91.8c0.2,0,0.4-0.1,0.6-0.2c0.2-0.1,0.3-0.2,0.4-0.4s0.1-0.4,0.1-0.7
		c0-0.4-0.1-0.7-0.3-1c-0.2-0.2-0.6-0.4-1.1-0.4h-2.6v2.7h2.1C208.2,91.8,208.4,91.8,208.6,91.8"/>
	<polygon class="st1" points="214.8,88.3 218.9,94.5 218.9,94.5 218.9,88.3 219.9,88.3 219.9,96 218.8,96 214.7,89.8 214.7,89.8 
		214.7,96 213.7,96 213.7,88.3 	"/>
	<rect x="227.7" y="88.3" class="st1" width="1" height="7.7"/>
	<polygon class="st1" points="233.5,88.3 235.9,94.7 238.4,88.3 239.8,88.3 239.8,96 238.8,96 238.8,89.6 238.8,89.6 236.4,96 
		235.5,96 233.1,89.6 233.1,89.6 233.1,96 232.1,96 232.1,88.3 	"/>
	<polygon class="st1" points="244.5,88.3 246.9,94.7 249.4,88.3 250.8,88.3 250.8,96 249.8,96 249.8,89.6 249.8,89.6 247.4,96 
		246.5,96 244.1,89.6 244,89.6 244,96 243.1,96 243.1,88.3 	"/>
	<path class="st1" d="M253.8,90.6c0.2-0.5,0.4-0.9,0.7-1.3c0.3-0.4,0.7-0.7,1.2-0.9c0.5-0.2,1-0.3,1.6-0.3c0.6,0,1.2,0.1,1.6,0.3
		c0.5,0.2,0.8,0.5,1.2,0.9c0.3,0.4,0.5,0.8,0.7,1.3c0.2,0.5,0.2,1,0.2,1.5c0,0.5-0.1,1-0.2,1.5c-0.2,0.5-0.4,0.9-0.7,1.3
		c-0.3,0.4-0.7,0.7-1.2,0.9c-0.5,0.2-1,0.3-1.6,0.3c-0.6,0-1.2-0.1-1.6-0.3c-0.5-0.2-0.9-0.5-1.2-0.9c-0.3-0.4-0.5-0.8-0.7-1.3
		c-0.2-0.5-0.2-1-0.2-1.5C253.6,91.6,253.7,91.1,253.8,90.6 M254.8,93.3c0.1,0.4,0.3,0.7,0.5,1c0.2,0.3,0.5,0.5,0.8,0.7
		c0.3,0.2,0.7,0.3,1.2,0.3c0.5,0,0.9-0.1,1.2-0.3c0.3-0.2,0.6-0.4,0.8-0.7c0.2-0.3,0.4-0.6,0.5-1c0.1-0.4,0.2-0.8,0.2-1.2
		s-0.1-0.8-0.2-1.2c-0.1-0.4-0.3-0.7-0.5-1c-0.2-0.3-0.5-0.5-0.8-0.7c-0.3-0.2-0.7-0.3-1.2-0.3c-0.5,0-0.9,0.1-1.2,0.3
		c-0.3,0.2-0.6,0.4-0.8,0.7c-0.2,0.3-0.4,0.6-0.5,1c-0.1,0.4-0.2,0.8-0.2,1.2S254.7,92.9,254.8,93.3"/>
	<path class="st1" d="M266.6,88.3c0.2,0,0.3,0,0.5,0c0.2,0,0.4,0,0.6,0c0.2,0,0.4,0,0.5,0.1c0.2,0,0.3,0.1,0.4,0.2
		c0.3,0.2,0.5,0.4,0.6,0.6c0.2,0.3,0.3,0.6,0.3,1c0,0.4-0.1,0.8-0.3,1.1c-0.2,0.3-0.5,0.5-0.9,0.7v0c0.5,0.1,0.8,0.3,1.1,0.6
		c0.3,0.3,0.4,0.7,0.4,1.2c0,0.3-0.1,0.6-0.2,0.8c-0.1,0.3-0.3,0.5-0.4,0.7c-0.2,0.2-0.4,0.4-0.7,0.5c-0.3,0.1-0.6,0.2-1,0.2h-3.7
		v-7.7H266.6z M266.9,91.6c0.6,0,1-0.1,1.3-0.3c0.3-0.2,0.4-0.5,0.4-0.9c0-0.3,0-0.5-0.1-0.7c-0.1-0.2-0.2-0.3-0.4-0.4
		c-0.1-0.1-0.3-0.1-0.5-0.2c-0.2,0-0.4,0-0.6,0h-2.1v2.5H266.9z M267.4,95.1c0.5,0,0.8-0.1,1.1-0.4c0.3-0.2,0.4-0.6,0.4-1
		c0-0.3,0-0.5-0.1-0.6c-0.1-0.2-0.2-0.3-0.4-0.4c-0.2-0.1-0.3-0.2-0.5-0.2c-0.2,0-0.4-0.1-0.6-0.1h-2.4v2.7H267.4z"/>
	<rect x="272.8" y="88.3" class="st1" width="1" height="7.7"/>
	<polygon class="st1" points="278.2,88.3 278.2,95.1 282.3,95.1 282.3,96 277.2,96 277.2,88.3 	"/>
	<rect x="284.8" y="88.3" class="st1" width="1" height="7.7"/>
	<polygon class="st1" points="294.4,88.3 294.4,89.1 290.1,89.1 290.1,91.6 294.2,91.6 294.2,92.4 290.1,92.4 290.1,95.1 
		294.5,95.1 294.5,96 289.1,96 289.1,88.3 	"/>
	<polygon class="st1" points="298.4,88.3 302.4,94.5 302.5,94.5 302.5,88.3 303.4,88.3 303.4,96 302.3,96 298.3,89.8 298.2,89.8 
		298.2,96 297.3,96 297.3,88.3 	"/>
	<path class="st0" d="M152.2,3.8v45.5h45.5V3.8H152.2z M168.2,37c-10.3,0-11.8-6.2-11.8-9c0-4.8,3.7-9.3,10-9.3
		c3.9,0,6.2,1.9,6.2,2.7c0,0.6-1,1.4-1.8,1.4c-0.5,0-0.6-0.1-1.3-1c-0.6-0.8-1.4-1.7-3.5-1.7c-2.3,0-5.9,1.6-5.9,7.1
		c0,3.6,2.1,7.8,8.5,7.8c4.4,0,6.1-2.8,7.2-4.3l-1.4,6.3C172.7,37.1,173.4,37,168.2,37z M182.6,37h-7.4l0.4-1.6c4-0.1,5.2,0,7.4-0.1
		c4.5-0.1,6.6-3.6,6.6-7.2c0-4.7-3.2-7-6.9-7c-2.2,0-3.5,0.7-4.6,1.3c-1.2,0.6-2.4,1.6-3.3,2.4v-9.3c0-2.5,0-2.3-2.5-2.3v-1.2
		c2.5-0.8,3.1-1,5.4-2.3l0.8,0.4c-0.3,1.8-0.3,1-0.4,5.7v4.7c2.1-1.3,3.8-1.9,6.6-1.9c4.9,0,8.4,3.7,8.4,8.6
		C193,32.9,188.8,37,182.6,37z"/>
</g>
</svg>
